PathFileType	3	(X/Y/Z)	D:\Jess\Healthy\Labelled\HA16\20250507\SRRun02.trc
DataRate	CameraRate	NumFrames	NumMarkers	Units	OrigDataRate	OrigDataStartFrame	OrigNumFrames
250.0	250.0	5	37	mm	250.0	35000	2501
Frame#	Time	C7			T10			CLAV			LSHO			RSHO			LASIS			RASIS			LPSIS			RPSIS			LILCR			RILCR			LGTR			LTHI			LLTHI			LLEP			LMEP			LPSH			LLSH			LDSH			LLMAL			LMMAL			LTOE			L5TH			LHEE			RGTR			RTHI			RLTHI			RLEP			RMEP			RPSH			RLSH			RDSH			RLMAL			RMMAL			RTOE			R5TH			RHEE			
		X1	Y1	Z1	X2	Y2	Z2	X3	Y3	Z3	X4	Y4	Z4	X5	Y5	Z5	X6	Y6	Z6	X7	Y7	Z7	X8	Y8	Z8	X9	Y9	Z9	X10	Y10	Z10	X11	Y11	Z11	X12	Y12	Z12	X13	Y13	Z13	X14	Y14	Z14	X15	Y15	Z15	X16	Y16	Z16	X17	Y17	Z17	X18	Y18	Z18	X19	Y19	Z19	X20	Y20	Z20	X21	Y21	Z21	X22	Y22	Z22	X23	Y23	Z23	X24	Y24	Z24	X25	Y25	Z25	X26	Y26	Z26	X27	Y27	Z27	X28	Y28	Z28	X29	Y29	Z29	X30	Y30	Z30	X31	Y31	Z31	X32	Y32	Z32	X33	Y33	Z33	X34	Y34	Z34	X35	Y35	Z35	X36	Y36	Z36	X37	Y37	Z37	

1	139.996	1068.085004732702	1395.030053625746	-376.3399300283521	1014.30052785104	1170.197254319625	-395.5004984626738	1195.434104153314	1322.600106299369	-314.0431000755004	1083.140574314341	1369.230672894579	-223.9141104622901	1182.906884441409	1378.368224685837	-463.4501255982284	1169.875157598513	926.3910025551057	-458.5957866947924	1169.284795343218	951.4201008721772	-247.2606714776931	1001.55624950856	1002.442742855187	-377.537159447816	1000.387926672203	999.9678934876574	-329.1364702275499	1154.428127169571	1019.239986873923	-480.6115651825063	1102.218253616071	1031.48505424833	-207.7496662183831	1064.812386670746	862.1339687977611	-524.6315217459976	1093.742433657383	678.4430913609349	-462.0343243594015	958.0054381817112	648.7603348369759	-487.3889977177482	890.5810940643153	527.794927124309	-467.1418408301863	nan	nan	nan	894.588563601533	424.2907396290992	-414.6318617271288	768.0182069332685	388.2203848507912	-471.1463529120491	774.6354075724787	279.778209775325	-411.5011143435452	668.8411302517471	227.3323453235503	-438.6110116316293	nan	nan	nan	707.131625945744	90.45775026984487	-424.6745438094349	656.2754005513285	101.7852717258982	-454.8079625836928	620.3083860633976	268.5505129498798	-385.2909175930623	1104.91350002208	880.1161194275861	-161.4695765614806	1238.059521884309	762.2788793483818	-258.387237053558	1167.321203794429	646.5950991271059	-192.4960446080919	1200.694877938265	505.8309601164502	-218.1108110483049	nan	nan	nan	1271.669209032815	439.1958049946396	-258.3703833407615	1221.893637649035	328.5314375593422	-207.4237513884226	1293.198834526271	233.7079583828231	-257.3017406781678	1257.278136146109	131.1013681080699	-241.0036971922838	nan	nan	nan	1392.596272749611	126.0987721876663	-223.6566683703485	1365.082802910911	88.76464301739472	-201.3517649383893	1211.706514071508	91.13252938973888	-298.2038522571941	
2	140	1068.741018314098	1394.701792308312	-375.7954305607571	1014.411641328938	1169.824924018616	-394.7901504539034	1195.709870935961	1321.96395353187	-313.1538916692905	1083.33939565652	1368.583402104498	-223.2497910136325	1183.674050615625	1377.755003063459	-462.8415182202834	1170.396527692923	926.4157919578312	-457.2154070335585	1169.810828901741	950.5696935644928	-246.7253512054322	1001.912512649753	1002.508985760954	-376.7993061763542	1000.806808289091	999.8193479631116	-328.4124596069668	1154.300621704022	1019.264783627715	-479.7302404562161	1102.781513981172	1030.662185245149	-207.1537083665461	1065.490187695988	862.7960149042109	-524.4329262219869	1095.079763826118	678.5498149419611	-462.2018115408476	959.6404067792994	648.0205178083519	-487.3888279567036	892.5190527235886	526.9774278793698	-467.0387594879982	nan	nan	nan	894.478172102946	423.3041618553683	-415.172047307559	766.8783472292674	390.6388307608164	-471.1436920657387	771.142094885073	282.1225693247212	-411.7336653732123	664.0477076022077	232.4342072025002	-438.5204966847967	nan	nan	nan	699.5078970909975	94.97526258109646	-425.1409661645457	648.8048349811834	107.4182309022681	-454.9446611001772	616.7086010222722	274.4710093190499	-384.7960509167522	1105.441054951371	877.907652459624	-161.6401807522659	1236.433198622861	757.2773099914198	-258.5054612642024	1166.571580602161	643.6907764233116	-191.8644688215095	1199.998277149766	503.9714301422588	-218.1173708682132	nan	nan	nan	1271.463758757833	438.7772395772573	-259.2359164063342	1223.589483531197	327.5963314335742	-207.8794815356608	1296.255387353758	234.0424076155104	-258.0278751414596	1261.897712199938	130.9627450421782	-241.6316157272693	nan	nan	nan	1396.95586364766	128.6621426378266	-223.6355551247465	1370.097456596667	90.86403982264008	-201.4535665000662	1217.434350904341	89.79548063141365	-299.0637905233382	
3	140.004	1069.395560206746	1394.384403474759	-375.2507220004026	1014.520403253685	1169.472760417944	-394.0848624629584	1195.985411200056	1321.334078334525	-312.2777162262266	1083.536361428785	1367.947504533387	-222.5903028957499	1184.441127576236	1377.146002998167	-462.2353345723915	1170.910129210293	926.4586010605601	-455.8622058914735	1170.333622019221	949.7294189064609	-246.2077784108029	1002.272261257419	1002.578638811568	-376.0638786785909	1001.234295054686	999.6704008359444	-327.6916049273002	1154.150638658777	1019.296367788765	-478.8675918358379	1103.336319821376	1029.860044167738	-206.5724009593972	1066.164337746614	863.4631583427094	-524.2394168553222	1096.409567950173	678.666556153439	-462.3542410456594	961.2707088985883	647.2922931043069	-487.3883620809522	894.4462249942584	526.1717723907968	-466.9289982332866	nan	nan	nan	894.3734662147062	422.3294514248045	-415.6990617742871	765.7536669724936	393.042053535599	-471.1365032509777	767.68283761932	284.4517315180337	-411.9607597034478	659.3007890660091	237.4931316455351	-438.4380120077968	nan	nan	nan	691.9560025289882	99.4475559094883	-425.5954560000579	641.4044841895652	112.9946463412491	-455.0835602258847	613.1354562454833	280.3544797021776	-384.323439629923	1105.956600659481	875.7011008865675	-161.8007254756089	1234.804630692729	752.3130326761823	-258.63821675292	1165.814068250028	640.8056211963251	-191.2441237537045	1199.322761527561	502.1318849396272	-218.1195861312269	nan	nan	nan	1271.254482606552	438.3542045076981	-260.0807817421053	1225.259507318557	326.6544185076804	-208.322419402864	1299.267487989718	234.3557795637802	-258.736371497029	1266.464471409482	130.7970613686896	-242.2512463830084	nan	nan	nan	1401.270582186201	131.1754345047629	-223.6326064249803	1375.067538001193	92.89969174846144	-201.5803548866803	1223.093211454473	88.44701068218195	-299.9154742292226	
4	140.008	1070.046129947149	1394.054527191901	-374.6969695088133	1014.6216169749	1169.119723023854	-393.3842238623292	1196.264196401003	1320.675840302607	-311.4226324862626	1083.73836571571	1367.296833021074	-221.9298890466319	1185.205721432624	1376.510261083134	-461.6323382294917	1171.410255573932	926.5090760549912	-454.574705978465	1170.842571732438	948.8709654287273	-245.7048638624294	1002.62738543842	1002.601975083768	-375.3278537699627	1001.659762864105	999.4699486664571	-326.971710675206	1153.957246035594	1019.306146695604	-478.0398531032166	1103.865130777513	1029.048544739157	-206.009832517313	1066.835798538885	864.093026538626	-524.0496191743114	1097.745989132476	678.7630011356526	-462.4790218652708	962.9161810885747	646.5350082581753	-487.3871202870162	896.3921862137011	525.3455369230078	-466.8149169855273	nan	nan	nan	894.3086996701064	421.3414128867599	-416.215765144774	764.6926573331084	395.4110425020331	-471.1209385635796	764.3056910064571	286.7505169760076	-412.1877661967918	654.6631088562747	242.4977873472627	-438.3684993596424	nan	nan	nan	684.5246164426816	103.8727102060837	-426.0415955432719	634.129403887503	118.5162621643226	-455.2295095287255	609.6571978153723	286.1876894337298	-383.8814586013253	1106.439674648955	873.4654537260809	-161.9369102323093	1233.195568604066	747.4259250581638	-258.785808991388	1165.059506676417	637.942357023176	-190.6493462599535	1198.690402447166	500.3119086786222	-218.1185246251753	nan	nan	nan	1271.042759126699	437.8960516059507	-260.894619734271	1226.861552555986	325.6843217163033	-208.7558419474264	1302.1561976723	234.598255621033	-259.4332755636972	1270.860471442604	130.5702494206041	-242.8715520321909	nan	nan	nan	1405.426766036447	133.5397006711896	-223.676454557639	1379.864309806395	94.78248926702972	-201.7586440101867	1228.537607404173	87.08201831642515	-300.7662552639005	
5	140.012	1070.690105304129	1393.687431153599	-374.1254632094407	1014.710415752024	1168.742964263243	-392.6874536113318	1196.549566532343	1319.954007406878	-310.5958590540199	1083.952707916627	1366.6042236083	-221.262579373083	1185.965289641959	1375.816301526356	-461.03280961247	1171.891958070904	926.5547273705574	-453.3880821763127	1171.32756506792	947.9649162730393	-245.2123075435038	1002.969761127354	1002.528820515446	-374.5876609014852	1002.071959892533	999.1665174637345	-326.2499286206812	1153.701576424926	1019.265400994934	-477.2619797048634	1104.350946971028	1028.19537612404	-205.4686647387241	1067.505715794973	864.6427335753255	-523.8620108060302	1099.103538770615	678.8075457391816	-462.5651706224744	964.5967315920423	645.7074339852827	-487.3850250818548	898.3873047008243	524.4651786437224	-466.6995933828452	nan	nan	nan	894.3177160180146	420.3136718920052	-416.7260506105316	763.7430395128923	397.7274609754651	-471.0936153221485	761.0565000999507	289.0044787131306	-412.4204759026546	650.1943298915776	247.4397070897348	-438.3162075426492	nan	nan	nan	677.2571514008184	108.2518648166234	-426.4836616231377	627.0297600226779	123.9888767774868	-455.3871721358233	606.3407026115935	291.9597357107083	-383.4766715497279	1106.870361113521	871.1693548263117	-162.0348891488707	1231.630041830208	742.6562904293359	-258.9471860800244	1164.319845481556	635.1039039542403	-190.0946395789207	1198.120030130127	498.5086803005669	-218.1158670481196	nan	nan	nan	1270.829760291826	437.370917613358	-261.6676359064784	1228.353833819804	324.6635827779389	-209.1842817459093	1304.845286548453	234.7199538939314	-260.1251364235611	1274.970740491336	130.2488311291872	-243.5023642222099	nan	nan	nan	1409.31343249042	135.6569940189036	-223.7946340374803	1384.360574547289	96.42600429979434	-202.0130507302196	1233.625501467605	85.69696403304216	-301.6245330723547	
